<?xml version="1.0" standalone="no"?><!DOCTYPE svg PUBLIC "-//W3C//DTD SVG 1.1//EN" "http://www.w3.org/Graphics/SVG/1.1/DTD/svg11.dtd"><svg class="icon" width="32px" height="32.00px" viewBox="0 0 1024 1024" version="1.1" xmlns="http://www.w3.org/2000/svg"><path fill="#333333" d="M89 168.696C89 124.704 124.704 89 168.696 89h686.608C899.296 89 935 124.704 935 168.696v686.608C935 899.296 899.296 935 855.304 935H168.696C124.68 935 89 899.319 89 855.304V168.696z m61.304 0v686.608c0 10.152 8.24 18.392 18.392 18.392h686.608c10.158 0 18.392-8.234 18.392-18.392V168.696c0-10.158-8.234-18.392-18.392-18.392H168.696c-10.158 0-18.392 8.234-18.392 18.392zM316.608 543C299.704 543 286 529.345 286 512.5s13.704-30.5 30.608-30.5h391.784C725.296 482 739 495.655 739 512.5S725.296 543 708.392 543H316.608z" /></svg>